Coordinates
version=1
nRows=5
nColumns=40
inDegrees=yes

Units are S.I. units (second, meters, Newtons, ...)
If the header above contains a line with 'inDegrees', this indicates whether rotational values are in degrees (yes) or radians (no).

endheader
time	pelvis_tilt	pelvis_list	pelvis_rotation	pelvis_tx	pelvis_ty	pelvis_tz	hip_flexion_r	hip_adduction_r	hip_rotation_r	knee_angle_r	knee_angle_r_beta	ankle_angle_r	subtalar_angle_r	mtp_angle_r	hip_flexion_l	hip_adduction_l	hip_rotation_l	knee_angle_l	knee_angle_l_beta	ankle_angle_l	subtalar_angle_l	mtp_angle_l	lumbar_extension	lumbar_bending	lumbar_rotation	arm_flex_r	arm_add_r	arm_rot_r	elbow_flex_r	pro_sup_r	wrist_flex_r	wrist_dev_r	arm_flex_l	arm_add_l	arm_rot_l	elbow_flex_l	pro_sup_l	wrist_flex_l	wrist_dev_l
      5.54000000	      4.78637292	     -3.15739809	      1.16109857	     -0.36267484	      0.82375144	     -1.03415810	     60.19238853	      1.49747443	     -1.08390937	      8.17806332	      0.14273413	      0.76814138	      0.00000000	      0.00000000	     32.29347591	     -1.02959126	     -4.66901883	     66.11320665	      1.15389314	     19.61222903	      0.00000000	      0.00000000	    -20.83491925	      3.23463771	      2.79283074	     53.56985103	    -14.38536967	     10.35368521	     37.72552315	     86.30521800	      0.00000000	      0.00000000	     51.84184995	    -19.41449592	     16.42092475	     55.47496172	     85.97563829	      0.00000000	      0.00000000
      5.54500000	      4.83558329	     -3.25096528	      1.17296315	     -0.36220805	      0.82485859	     -1.03412378	     60.16367547	      1.58582419	     -0.99116441	      8.17750556	      0.14272440	      0.70387454	      0.00000000	      0.00000000	     32.09138611	     -1.12759626	     -4.64529667	     65.87571224	      1.14974808	     19.48006708	      0.00000000	      0.00000000	    -20.84305618	      3.32360277	      2.83407315	     52.62535511	    -14.20386691	      9.89320738	     37.22712833	     86.26983281	      0.00000000	      0.00000000	     50.76920241	    -19.13309766	     16.07819603	     55.27874209	     86.17509850	      0.00000000	      0.00000000
      5.55000000	      5.11741677	     -3.77928691	      1.27742637	     -0.36103597	      0.82663179	     -1.03411283	     59.72560570	      1.82897947	     -1.57348297	      8.06052173	      0.14068264	      1.14178991	      0.00000000	      0.00000000	     31.58489913	     -1.68669613	     -4.43351451	     65.70200508	      1.14671631	     19.52377689	      0.00000000	      0.00000000	    -21.03987695	      3.90897399	      2.92927371	     51.61083506	    -14.11611848	      9.70315410	     36.81265076	     86.21406263	      0.00000000	      0.00000000	     49.67205383	    -18.93060965	     16.03211137	     55.02516536	     86.21629204	      0.00000000	      0.00000000
      5.55500000	      4.90767288	     -3.48342824	      1.23428368	     -0.36111659	      0.82701738	     -1.03420152	     60.14450851	      1.69467800	     -1.08966645	      8.29743732	      0.14481760	      0.79694671	      0.00000000	      0.00000000	     31.69455436	     -1.34001139	     -4.51838655	     65.44914517	      1.14230308	     19.39074713	      0.00000000	      0.00000000	    -20.79690970	      3.58068466	      2.91622982	     50.65420736	    -14.14083744	      9.78875444	     36.49689486	     86.19343533	      0.00000000	      0.00000000	     48.78931001	    -18.83906786	     16.28005956	     54.82023856	     86.29466227	      0.00000000	      0.00000000
      5.56000000	      5.19582017	     -3.81541039	      1.38252208	     -0.36023584	      0.82882192	     -1.03440652	     59.67579924	      1.80440110	     -1.33858008	      8.06839383	      0.14082004	      0.92672290	      0.00000000	      0.00000000	     31.16460191	     -1.61454786	     -4.29034523	     65.15253655	      1.13712628	     19.31983711	      0.00000000	      0.00000000	    -21.04665116	      3.98923593	      2.89560001	     49.70505696	    -13.99531259	      9.37733870	     36.08500437	     86.11071391	      0.00000000	      0.00000000	     47.67058436	    -18.52231274	     15.92178368	     54.59132632	     86.28368436	      0.00000000	      0.00000000
